<svg width="1512" height="1095" viewBox="0 0 1512 1095" fill="none" xmlns="http://www.w3.org/2000/svg">
<path d="M1511.07 547.463C1511.07 698.492 1426.57 835.257 1289.88 934.278C1153.19 1033.3 964.338 1094.56 755.721 1094.56C547.104 1094.56 358.251 1033.3 221.563 934.278C84.8732 835.257 0.369907 698.492 0.369907 547.463C0.369907 396.433 84.8732 259.669 221.563 160.648C358.251 61.6269 547.104 0.369907 755.721 0.369907C964.338 0.369907 1153.19 61.6269 1289.88 160.648C1426.57 259.669 1511.07 396.433 1511.07 547.463Z" stroke="black" stroke-opacity="0.31" stroke-width="0.739815"/>
<path d="M1455.59 518.24C1455.59 637.887 1378.81 746.261 1254.56 824.742C1130.32 903.22 958.666 951.772 769.037 951.772C579.409 951.772 407.751 903.22 283.511 824.742C159.266 746.261 82.4893 637.887 82.4893 518.24C82.4893 398.593 159.266 290.219 283.511 211.738C407.751 133.261 579.409 84.7088 769.037 84.7088C958.666 84.7088 1130.32 133.261 1254.56 211.738C1378.81 290.219 1455.59 398.593 1455.59 518.24Z" stroke="black" stroke-opacity="0.31" stroke-width="0.739815"/>
<path d="M1346.09 505.294C1346.09 605.221 1280.21 695.747 1173.57 761.311C1066.93 826.871 919.596 867.433 756.831 867.433C594.065 867.433 446.727 826.871 340.091 761.311C233.45 695.747 167.568 605.221 167.568 505.294C167.568 405.366 233.45 314.84 340.091 249.276C446.727 183.716 594.065 143.154 756.831 143.154C919.596 143.154 1066.93 183.716 1173.57 249.276C1280.21 314.84 1346.09 405.366 1346.09 505.294Z" stroke="black" stroke-opacity="0.31" stroke-width="0.739815"/>
<path d="M1303.18 503.814C1303.18 586.78 1246.83 661.955 1155.58 716.409C1064.34 770.859 938.273 804.549 799 804.549C659.726 804.549 533.656 770.859 442.416 716.409C351.169 661.955 294.816 586.78 294.816 503.814C294.816 420.848 351.169 345.673 442.416 291.218C533.656 236.769 659.726 203.079 799 203.079C938.273 203.079 1064.34 236.769 1155.58 291.218C1246.83 345.673 1303.18 420.848 1303.18 503.814Z" stroke="black" stroke-opacity="0.31" stroke-width="0.739815"/>
</svg>
